PathFileType	4	(X/Y/Z)	Walk10.trc
DataRate	CameraRate	NumFrames	NumMarkers	Units	OrigDataRate	OrigDataStartFrame	OrigNumFrames
200.000000	200.000000	6	59	mm	200.000000	399	520
Frame#	Times		LFHD		RFHD		CLAV		RACR1		RUA1		RFA1		LACR1		LUA1		LFA1		LWRU		RTH1		RTH3		LTH2		LWRR		RWRR		LCAR		RElbow		RBack		RTB3		RCAR		LTH3		RTB1		LLFC		RWRU		RTB4		T10		RASI		C7		LTH4		LBHD		LASI		STRN		RBHD		RPSI		LTB2		LTH1		RTH2		LTB4		LToe		LTB1		LElbowM		LMMAL		RTH4		LElbow		RToe		LTB3		LCAL		LMT1		RElbowM		LMT5		RMT1		RTB2		LPSI		LLMAL		RLFC		RMT5		RCAL		RLMAL		RMMAL
			X1	Y1	Z1	X2	Y2	Z2	X3	Y3	Z3	X4	Y4	Z4	X5	Y5	Z5	X6	Y6	Z6	X7	Y7	Z7	X8	Y8	Z8	X9	Y9	Z9	X10	Y10	Z10	X11	Y11	Z11	X12	Y12	Z12	X13	Y13	Z13	X14	Y14	Z14	X15	Y15	Z15	X16	Y16	Z16	X17	Y17	Z17	X18	Y18	Z18	X19	Y19	Z19	X20	Y20	Z20	X21	Y21	Z21	X22	Y22	Z22	X23	Y23	Z23	X24	Y24	Z24	X25	Y25	Z25	X26	Y26	Z26	X27	Y27	Z27	X28	Y28	Z28	X29	Y29	Z29	X30	Y30	Z30	X31	Y31	Z31	X32	Y32	Z32	X33	Y33	Z33	X34	Y34	Z34	X35	Y35	Z35	X36	Y36	Z36	X37	Y37	Z37	X38	Y38	Z38	X39	Y39	Z39	X40	Y40	Z40	X41	Y41	Z41	X42	Y42	Z42	X43	Y43	Z43	X44	Y44	Z44	X45	Y45	Z45	X46	Y46	Z46	X47	Y47	Z47	X48	Y48	Z48	X49	Y49	Z49	X50	Y50	Z50	X51	Y51	Z51	X52	Y52	Z52	X53	Y53	Z53	X54	Y54	Z54	X55	Y55	Z55	X56	Y56	Z56	X57	Y57	Z57	X58	Y58	Z58	X59	Y59	Z59

399	1.995	370.32	1439.8	-12.758	364.28	1427.5	83.054	340.62	1190.3	17.496	271.39	1209.4	198.41	285.01	1068.5	276.15	355.37	830.8	317.7	263.45	1223.4	-169.92	276.3	1061.3	-245.53	315.66	856.73	-289.2	326.33	746.78	-308.99	274.26	641.05	214.95	284.84	474.96	163.74	342.89	601.56	-164.88	364.52	757.09	-259.89	380.41	732.15	286.37	377.46	713.85	-308.2	287.09	941.7	307.21	153.22	1147	133.93	283.83	120.36	56.429	398.39	681.39	341.58	316.53	497.87	-172.77	313.43	287.42	82.568	352.29	402.77	-143.77	344.68	731.34	349.07	295.05	203.23	69.563	113.85	1075.1	22.865	333.83	831.47	168.54	200.49	1274.4	20.469	295.23	580.51	-193.72	242.19	1363.6	-40.374	309.07	822.62	-155.64	392.97	1084	20.589	235.05	1354.9	92.103	72.137	850.53	72.841	239.09	255.15	-125.17	273.29	663.08	-207.5	334.01	566.86	175.15	259.41	242.36	-67.965	228.76	38.817	-63.939	322.77	303.24	-77.779	210.21	919.19	-202.21	147.34	154.05	-10.863	277.08	557.01	192.8	241.58	943.53	-267.19	396.68	32.406	51.946	204.54	180.86	-60.84	76.503	171.21	-38.081	194.55	56.265	-32.145	237.59	905.82	238.01	148.21	71.464	-106.16	340.94	29.645	18.178	263.08	201.56	121.99	60.386	848.77	-32.054	113.31	156.44	-86.086	269.32	390.18	138.87	315.91	22.894	112.23	173.88	34.466	44.594	231.61	59.363	90.144	242.7	69.986	7.6991
400	2	376.13	1440.2	-12.498	370.08	1427.9	83.316	346.34	1190.7	17.583	277.11	1209.8	198.6	291.18	1069	276.37	362.82	831.71	317.7	268.77	1223.8	-169.74	280.7	1061.9	-245.73	318.77	856.67	-289.68	328.13	746.67	-309.82	278.4	640.95	215.14	287.53	474.8	163.85	350.14	603.17	-164.41	366.54	756.31	-260.73	388.22	733.25	286.34	378.83	712.97	-309.17	294.02	942.36	307.67	158.95	1147.5	134.26	284.22	120.21	56.505	406.74	682.66	341.5	324.64	499.23	-171.97	314.71	287.1	82.799	361.27	404.52	-142.67	352.73	732.22	349.16	295.9	203.01	69.713	119.63	1075.5	23.353	338.8	831.7	169.38	206.23	1274.8	20.698	302.62	581.62	-193.15	247.95	1364	-40.121	315.08	823.52	-155.6	398.73	1084.5	20.059	240.81	1355.3	92.372	77.912	851.02	73.348	251.73	254.13	-124.13	279.96	663.98	-207.15	337.49	566.27	175.3	272.37	241.95	-66.916	248.72	38.636	-63.408	334.03	304.51	-76.691	214.29	920.06	-202.12	162.98	150.43	-9.9013	280.47	556.9	192.93	245.75	944.16	-267.02	396.86	32.244	52.077	219.27	178.92	-59.796	91.428	165.1	-36.988	213.83	54.878	-31.644	244.06	906.22	238.8	166.73	68.304	-105.48	340.98	29.656	18.216	263.8	201.52	122.07	65.971	849.53	-31.418	128.8	151.81	-85.167	271.19	390.15	138.99	315.91	22.882	112.27	173.95	34.705	44.589	231.75	59.448	90.142	242.91	70.074	7.7155
401	2.005	381.92	1440.5	-12.264	375.85	1428.2	83.551	352.06	1191.1	17.661	282.81	1210.3	198.76	297.26	1069.5	276.59	370.24	832.64	317.7	274.12	1224.2	-169.56	285.15	1062.5	-245.91	321.92	856.61	-290.2	329.96	746.58	-310.73	282.54	640.85	215.34	290.23	474.68	163.94	357.35	604.7	-163.95	368.59	755.53	-261.66	396.01	734.35	286.29	380.21	712.11	-310.26	300.9	943.01	308.11	164.66	1148	134.57	284.61	120.06	56.58	415.06	683.93	341.4	332.65	500.52	-171.15	315.95	286.79	83.021	370.06	406.19	-141.52	360.76	733.11	349.22	296.73	202.8	69.856	125.4	1075.8	23.815	343.85	831.88	170.18	211.95	1275.1	20.895	309.96	582.66	-192.59	253.7	1364.4	-39.902	321.09	824.41	-155.55	404.49	1085	19.501	246.54	1355.7	92.607	83.694	851.49	73.863	264.41	253.01	-123.1	286.62	664.81	-206.82	340.96	565.71	175.46	285.4	241.45	-65.869	268.9	38.511	-62.994	345.2	305.72	-75.589	218.45	920.88	-202.05	178.92	146.63	-8.9622	283.87	556.82	193.05	249.98	944.77	-266.88	397.03	32.084	52.224	234.2	176.87	-58.765	106.71	158.73	-35.888	233.41	53.475	-31.231	250.52	906.61	239.55	185.55	65.098	-104.87	341.03	29.664	18.261	264.51	201.5	122.13	71.54	850.24	-30.778	144.59	146.99	-84.261	273.02	390.13	139.1	315.9	22.868	112.31	174.03	34.96	44.58	231.9	59.535	90.134	243.12	70.171	7.7278
402	2.01	387.68	1440.8	-12.056	381.59	1428.5	83.76	357.78	1191.5	17.73	288.49	1210.7	198.9	303.26	1070	276.81	377.63	833.57	317.68	279.52	1224.6	-169.39	289.64	1063	-246.08	325.13	856.56	-290.77	331.82	746.52	-311.73	286.7	640.76	215.55	292.94	474.59	164.02	364.51	606.13	-163.49	370.67	754.76	-262.69	403.79	735.47	286.22	381.6	711.25	-311.44	307.72	943.65	308.54	170.36	1148.4	134.85	285	119.94	56.652	423.36	685.21	341.27	340.55	501.73	-170.31	317.16	286.5	83.233	378.64	407.77	-140.34	368.76	733.99	349.26	297.55	202.61	69.993	131.15	1076.1	24.252	348.99	832.02	170.91	217.66	1275.5	21.063	317.24	583.62	-192.04	259.44	1364.7	-39.714	327.1	825.29	-155.47	410.24	1085.5	18.922	252.24	1356	92.809	89.48	851.94	74.375	277.13	251.79	-122.06	293.28	665.59	-206.5	344.44	565.16	175.63	298.47	240.88	-64.833	289.26	38.472	-62.701	356.26	306.88	-74.48	222.67	921.65	-202	195.14	142.68	-8.0563	287.29	556.76	193.16	254.26	945.34	-266.76	397.21	31.926	52.386	249.3	174.74	-57.758	122.35	152.14	-34.789	253.25	52.092	-30.913	256.99	906.99	240.24	204.64	61.89	-104.33	341.08	29.671	18.312	265.2	201.5	122.18	77.096	850.9	-30.146	160.66	142	-83.374	274.82	390.12	139.19	315.9	22.854	112.36	174.11	35.233	44.566	232.05	59.628	90.118	243.34	70.276	7.7341
403	2.015	393.41	1441.1	-11.874	387.29	1428.8	83.944	363.49	1191.8	17.792	294.14	1211.2	199.03	309.18	1070.5	277.04	384.98	834.5	317.66	284.96	1224.9	-169.23	294.18	1063.5	-246.24	328.38	856.51	-291.37	333.7	746.47	-312.81	290.87	640.69	215.76	295.65	474.53	164.09	371.62	607.45	-163.03	372.79	754	-263.82	411.55	736.6	286.14	383.01	710.41	-312.74	314.47	944.28	308.96	176.05	1148.8	135.12	285.39	119.82	56.718	431.63	686.48	341.12	348.35	502.85	-169.45	318.36	286.22	83.431	387.02	409.27	-139.11	376.73	734.88	349.28	298.37	202.42	70.12	136.9	1076.4	24.665	354.21	832.12	171.58	223.37	1275.7	21.205	324.48	584.51	-191.5	265.16	1365	-39.557	333.09	826.13	-155.38	415.99	1085.9	18.332	257.92	1356.3	92.981	95.265	852.37	74.87	289.87	250.5	-121.03	299.93	666.29	-206.21	347.94	564.63	175.81	311.57	240.24	-63.817	309.78	38.552	-62.528	367.21	307.99	-73.374	226.98	922.36	-201.95	211.66	138.64	-7.1931	290.74	556.72	193.28	258.6	945.89	-266.67	397.38	31.77	52.563	264.57	172.55	-56.785	138.36	145.39	-33.702	273.32	50.766	-30.69	263.47	907.35	240.88	223.99	58.721	-103.88	341.13	29.677	18.367	265.87	201.51	122.22	82.646	851.5	-29.536	177.02	136.9	-82.513	276.59	390.12	139.27	315.89	22.841	112.41	174.2	35.525	44.541	232.2	59.729	90.094	243.57	70.388	7.732
404	2.02	399.13	1441.3	-11.717	392.97	1429	84.102	369.19	1192	17.846	299.77	1211.6	199.14	315.03	1071	277.28	392.28	835.42	317.63	290.45	1225.1	-169.08	298.79	1063.9	-246.37	331.68	856.45	-292.01	335.63	746.43	-313.96	295.09	640.62	215.98	298.37	474.5	164.15	378.67	608.66	-162.56	374.96	753.25	-265.04	419.28	737.72	286.05	384.44	709.58	-314.14	321.16	944.88	309.37	181.73	1149.2	135.37	285.78	119.72	56.776	439.86	687.75	340.95	356.04	503.89	-168.57	319.54	285.96	83.613	395.18	410.67	-137.86	384.66	735.75	349.27	299.18	202.24	70.237	142.64	1076.6	25.055	359.52	832.19	172.17	229.06	1275.9	21.323	331.66	585.32	-190.97	270.87	1365.2	-39.427	339.08	826.94	-155.26	421.72	1086.3	17.739	263.58	1356.6	93.125	101.04	852.77	75.337	302.62	249.16	-120.02	306.58	666.91	-205.94	351.46	564.1	176	324.7	239.57	-62.829	330.42	38.784	-62.465	378.03	309.05	-72.277	231.37	923	-201.91	228.44	134.53	-6.3804	294.21	556.71	193.39	263	946.4	-266.6	397.55	31.617	52.753	280	170.34	-55.856	154.74	138.52	-32.639	293.6	49.537	-30.558	269.95	907.69	241.46	243.59	55.633	-103.5	341.2	29.681	18.426	266.53	201.54	122.23	88.196	852.03	-28.958	193.67	131.72	-81.686	278.34	390.12	139.33	315.88	22.83	112.46	174.29	35.838	44.501	232.35	59.838	90.061	243.81	70.509	7.7186
